<?xml version="1.0" encoding="utf-8"?>
<!-- Generator: Adobe Illustrator 19.0.1, SVG Export Plug-In . SVG Version: 6.00 Build 0)  -->
<svg version="1.1" id="Capa_1" xmlns="http://www.w3.org/2000/svg" xmlns:xlink="http://www.w3.org/1999/xlink" x="0px" y="0px"
	 viewBox="25 272 16 18" style="enable-background:new 25 272 16 18;" xml:space="preserve">
<style type="text/css">
	.st0{fill:#62B815;}
</style>
<path class="st0" d="M40.8,279.5c0.1-0.3,0.1-0.7,0.1-1c0,0,0,0,0,0c0-1-0.3-1.6-1-2c-0.3-0.1-0.6-0.2-0.9-0.2v-3.4
	c0-0.5-0.4-0.9-0.9-0.9H27.9c-0.5,0-0.9,0.4-0.9,0.9v3.4c-0.3,0-0.6,0.1-0.9,0.2c-0.7,0.3-1.1,1-1,2l0,0c0,0.4,0.1,0.7,0.1,1
	c0.1,0.3,0.1,0.6,0.1,0.9c0,0.2,0,0.5-0.1,0.8c-0.1,0.7-0.3,1.5,0.3,2.1c0.4,0.4,0.9,0.5,1.4,0.5v5.3c0,0.5,0.4,0.9,0.9,0.9h10.2
	c0.5,0,0.9-0.4,0.9-0.9v-5.3c0.6,0,1.1-0.2,1.4-0.5c0.6-0.6,0.4-1.4,0.3-2.1c-0.1-0.3-0.1-0.6-0.1-0.8
	C40.7,280.1,40.8,279.8,40.8,279.5z M29,274.5H37c0.1,0,0.2,0.1,0.2,0.2v1.7c-0.1,0-0.2,0.1-0.3,0.1c-0.9,0.3-1.9,0.7-2.6,1.2
	c-0.3-0.1-0.5-0.2-0.8-0.2h-0.9c-0.3,0-0.6,0.1-0.8,0.2c-0.7-0.5-1.7-0.9-2.6-1.2c-0.1,0-0.2-0.1-0.3-0.1v-1.7
	C28.8,274.6,28.9,274.5,29,274.5z M33,288.6c-0.5,0-1-0.4-1-0.9c0-0.5,0.4-0.9,1-0.9c0.5,0,1,0.4,1,0.9
	C34,288.2,33.5,288.6,33,288.6z M37,285.6H29c-0.1,0-0.2-0.1-0.2-0.2v-1.9c1-0.3,2-0.9,2.7-1.4c0.3,0.2,0.7,0.3,1.1,0.3h0.9
	c0.4,0,0.7-0.1,1.1-0.3c0.7,0.5,1.7,1,2.7,1.4v1.9C37.2,285.5,37.1,285.6,37,285.6z"/>
</svg>
