<?xml version="1.0" encoding="utf-8"?>
<!-- Generator: Adobe Illustrator 19.0.1, SVG Export Plug-In . SVG Version: 6.00 Build 0)  -->
<svg version="1.1" id="Capa_1" xmlns="http://www.w3.org/2000/svg" xmlns:xlink="http://www.w3.org/1999/xlink" x="0px" y="0px"
	 viewBox="-189.6 271.7 16.8 18.8" style="enable-background:new -189.6 271.7 16.8 18.8;" xml:space="preserve">
<style type="text/css">
	.st0{fill:#FF0000;}
</style>
<g>
	<path class="st0" d="M-178.6,284.5c-0.5,0-0.9,0.3-0.9,0.7c0,0.4,0.4,0.7,0.9,0.7c0.5,0,0.9-0.3,0.9-0.7
		C-177.7,284.8-178.1,284.5-178.6,284.5z"/>
	<path class="st0" d="M-183.8,281.6c-0.5,0-0.9,0.3-0.9,0.7s0.4,0.7,0.9,0.7c0.5,0,0.9-0.3,0.9-0.7S-183.3,281.6-183.8,281.6z"/>
	<path class="st0" d="M-173.2,289.2l-0.9-12.3c0-0.5-0.5-0.8-1.1-0.8h-2v-0.7c0-1.7-1.8-3.2-3.9-3.2c-2.2,0-3.9,1.4-3.9,3.2v0.7h-2
		c-0.6,0-1.1,0.4-1.1,0.8l-0.9,12.3c0,0.2,0.1,0.5,0.3,0.7c0.2,0.2,0.5,0.3,0.8,0.3h13.8c0.3,0,0.6-0.1,0.8-0.3
		C-173.3,289.7-173.2,289.5-173.2,289.2z M-183,275.4c0-0.8,0.8-1.5,1.8-1.5s1.8,0.7,1.8,1.5v0.7h-3.6L-183,275.4L-183,275.4z
		 M-185.8,282.3c0-0.9,0.9-1.6,2-1.6c1.1,0,2,0.7,2,1.6c0,0.9-0.9,1.6-2,1.6C-184.9,284-185.8,283.2-185.8,282.3z M-183.1,287.3
		c-0.1,0-0.2,0-0.3,0c-0.3-0.1-0.4-0.4-0.2-0.6l3.9-6.1c0.1-0.2,0.5-0.3,0.8-0.2c0.3,0.1,0.4,0.4,0.2,0.6l-3.9,6.1
		C-182.7,287.2-182.9,287.3-183.1,287.3z M-178.6,286.8c-1.1,0-2-0.7-2-1.6s0.9-1.6,2-1.6c1.1,0,2,0.7,2,1.6
		S-177.5,286.8-178.6,286.8z"/>
</g>
</svg>
