<?xml version="1.0" encoding="utf-8"?>
<!-- Generator: Adobe Illustrator 19.0.1, SVG Export Plug-In . SVG Version: 6.00 Build 0)  -->
<svg version="1.1" id="Capa_1" xmlns="http://www.w3.org/2000/svg" xmlns:xlink="http://www.w3.org/1999/xlink" x="0px" y="0px"
	 viewBox="-66 272.2 15.3 16.4" style="enable-background:new -66 272.2 15.3 16.4;" xml:space="preserve">
<style type="text/css">
	.st0{fill:#F0C000;}
</style>
<g>
	<path class="st0" d="M-52.3,274.7h-0.9v-1.3c0-0.4-0.3-0.8-0.8-0.8s-0.8,0.3-0.8,0.8v1.3h-1.5v-1.3c0-0.4-0.3-0.8-0.8-0.8
		s-0.8,0.3-0.8,0.8v1.3h-1.5v-1.3c0-0.4-0.3-0.8-0.8-0.8s-0.8,0.3-0.8,0.8v1.3h-1.5v-1.3c0-0.4-0.3-0.8-0.8-0.8s-0.8,0.3-0.8,0.8
		v1.3h-0.9c-0.2,0-0.4,0.2-0.4,0.4v13.2c0,0.2,0.2,0.4,0.4,0.4h12.3c0.2,0,0.4-0.2,0.4-0.4v-13.2C-51.9,274.9-52.1,274.7-52.3,274.7
		z M-54.3,285.2c0,0.2-0.1,0.3-0.3,0.3h-7.6c-0.2,0-0.3-0.1-0.3-0.3v-0.6c0-0.2,0.1-0.3,0.3-0.3h7.6c0.2,0,0.3,0.1,0.3,0.3V285.2z
		 M-54.3,281.8c0,0.2-0.1,0.3-0.3,0.3h-7.6c-0.2,0-0.3-0.1-0.3-0.3v-0.6c0-0.2,0.1-0.3,0.3-0.3h7.6c0.2,0,0.3,0.1,0.3,0.3V281.8z
		 M-54.3,278.4c0,0.2-0.1,0.3-0.3,0.3h-7.6c-0.2,0-0.3-0.1-0.3-0.3v-0.6c0-0.2,0.1-0.3,0.3-0.3h7.6c0.2,0,0.3,0.1,0.3,0.3V278.4z"/>
</g>
</svg>
