<?xml version="1.0" encoding="utf-8"?>
<!-- Generator: Adobe Illustrator 19.0.1, SVG Export Plug-In . SVG Version: 6.00 Build 0)  -->
<svg version="1.1" id="Capa_1" xmlns="http://www.w3.org/2000/svg" xmlns:xlink="http://www.w3.org/1999/xlink" x="0px" y="0px"
	 viewBox="-178 272 18 18" style="enable-background:new -178 272 18 18;" xml:space="preserve">
<style type="text/css">
	.st0{fill:#F6731C;}
</style>
<path class="st0" d="M-160.5,282.4l-1.1-0.6c0-0.3,0-0.5,0-0.8s0-0.5,0-0.8l1.1-0.6c0.2-0.1,0.4-0.3,0.5-0.6c0.1-0.3,0-0.5-0.1-0.7
	l-2-3.5c-0.2-0.3-0.5-0.5-0.9-0.5c-0.2,0-0.3,0-0.5,0.1l-1.1,0.6c-0.4-0.3-0.9-0.6-1.4-0.8V273c0-0.5-0.4-1-1-1h-4.1
	c-0.5,0-1,0.4-1,1v1.2c-0.5,0.2-1,0.5-1.4,0.8l-1.1-0.6c-0.1-0.1-0.3-0.1-0.5-0.1c-0.3,0-0.7,0.2-0.9,0.5l-2,3.5
	c-0.1,0.2-0.2,0.5-0.1,0.7c0.1,0.3,0.2,0.5,0.5,0.6l1.1,0.6c0,0.3,0,0.5,0,0.8s0,0.5,0,0.8l-1.1,0.6c-0.2,0.1-0.4,0.3-0.5,0.6
	c-0.1,0.3,0,0.5,0.1,0.7l2,3.5c0.2,0.3,0.5,0.5,0.9,0.5c0.2,0,0.3,0,0.5-0.1l1.1-0.6c0.4,0.3,0.9,0.6,1.4,0.8v1.2
	c0,0.3,0.1,0.5,0.3,0.7c0.2,0.2,0.4,0.3,0.7,0.3h4.1c0.5,0,1-0.4,1-1v-1.2c0.5-0.2,1-0.5,1.4-0.8l1.1,0.6c0.1,0.1,0.3,0.1,0.5,0.1
	c0.3,0,0.7-0.2,0.9-0.5l2-3.5c0.1-0.2,0.2-0.5,0.1-0.7C-160.1,282.8-160.3,282.5-160.5,282.4z M-169,286.3c-1.1,0-2.1-0.3-2.9-0.8
	l1.8-1.8c0.4,0.2,0.8,0.2,1.2,0.2c0,0,0,0,0,0c0.8,0,1.6-0.3,2.2-0.9c0.8-0.8,1.1-1.9,0.8-3c0-0.1-0.1-0.1-0.1-0.1
	c-0.1,0-0.1,0-0.2,0l-1.9,1.9c-0.1,0-0.4-0.2-0.9-0.7c-0.5-0.5-0.7-0.8-0.7-0.9l1.9-1.9c0,0,0.1-0.1,0-0.2c0-0.1-0.1-0.1-0.1-0.1
	c-0.3-0.1-0.6-0.1-0.9-0.1c-0.8,0-1.6,0.3-2.2,0.9c-0.6,0.6-0.9,1.3-0.9,2.2c0,0.4,0.1,0.8,0.2,1.2l-1.8,1.8
	c-0.5-0.8-0.8-1.8-0.8-2.8c0-2.9,2.4-5.3,5.3-5.3s5.3,2.4,5.3,5.3S-166.1,286.3-169,286.3z"/>
</svg>
