<?xml version="1.0" encoding="utf-8"?>
<!-- Generator: Adobe Illustrator 19.0.1, SVG Export Plug-In . SVG Version: 6.00 Build 0)  -->
<svg version="1.1" id="Capa_1" xmlns="http://www.w3.org/2000/svg" xmlns:xlink="http://www.w3.org/1999/xlink" x="0px" y="0px"
	 viewBox="124.5 271.5 17 17" style="enable-background:new 124.5 271.5 17 17;" xml:space="preserve">
<style type="text/css">
	.st0{fill:#00B4E5;}
</style>
<g>
	<g>
		<path class="st0" d="M141,278.4c0-3.4-3-6.2-6.6-6.2c-3.7,0-6.6,2.8-6.6,6.2c0,3.4,3,6.2,6.6,6.2c0.3,0,0.6,0,0.9-0.1
			c1.4,1,2.4,1.5,3.1,1.6c0,0,0,0,0.1,0c0.2,0,0.4-0.1,0.5-0.3c0.1-0.2,0.1-0.5,0-0.7c0,0-0.5-1-0.4-2
			C140.1,282,141,280.3,141,278.4z M132.6,279.3c-0.5,0-1-0.5-1-1.1c0-0.6,0.4-1.1,1-1.1c0.5,0,1,0.5,1,1.1
			C133.6,278.8,133.1,279.3,132.6,279.3z M136.2,279.3c-0.5,0-1-0.5-1-1.1c0-0.6,0.4-1.1,1-1.1c0.5,0,1,0.5,1,1.1
			S136.7,279.3,136.2,279.3z"/>
		<path class="st0" d="M129.1,283.4c-0.7-0.6-1.2-1.3-1.5-2.1c-0.4-0.8-0.6-1.7-0.6-2.6c0-0.9,0.2-1.8,0.6-2.6
			c0-0.1,0.1-0.1,0.1-0.2c-1.6,1-2.7,2.8-2.7,4.7c0,1.8,0.8,3.4,2.3,4.5c0.3,1.2-0.4,2.5-0.4,2.5c0,0.1,0,0.2,0,0.2
			c0,0.1,0.1,0.1,0.2,0.1c0,0,0,0,0,0c0.7-0.1,2.1-0.9,3-1.6c0.3,0.1,0.7,0.1,1,0.1c1.3,0,2.5-0.4,3.5-1c-0.2,0-0.4,0-0.7,0
			C132.2,285.3,130.5,284.6,129.1,283.4z"/>
	</g>
</g>
</svg>
