<?xml version="1.0" encoding="utf-8"?>
<!-- Generator: Adobe Illustrator 19.0.1, SVG Export Plug-In . SVG Version: 6.00 Build 0)  -->
<svg version="1.1" id="Capa_1" xmlns="http://www.w3.org/2000/svg" xmlns:xlink="http://www.w3.org/1999/xlink" x="0px" y="0px"
	 viewBox="21 269 24 24" style="enable-background:new 21 269 24 24;" xml:space="preserve">
<style type="text/css">
	.st0{fill:#FFFFFF;}
</style>
<g>
	<g>
		<path class="st0" d="M35.9,282.6c-0.3,0-0.5,0.2-0.6,0.3c-0.2,0.3-0.3,0.7-0.3,1.1s0.1,0.8,0.3,1.1c0.1,0.1,0.3,0.3,0.6,0.3
			c0.3,0,0.5-0.2,0.6-0.3c0.2-0.3,0.3-0.7,0.3-1.1s-0.1-0.8-0.3-1.1C36.4,282.8,36.2,282.6,35.9,282.6z"/>
		<path class="st0" d="M30.1,279.4c0.3,0,0.5-0.2,0.6-0.3c0.2-0.3,0.3-0.7,0.3-1.1c0-0.4-0.1-0.8-0.3-1.1c-0.1-0.1-0.3-0.3-0.6-0.3
			c-0.3,0-0.5,0.2-0.6,0.3c-0.2,0.3-0.3,0.7-0.3,1.1c0,0.4,0.1,0.8,0.3,1.1C29.6,279.2,29.8,279.4,30.1,279.4z"/>
		<path class="st0" d="M42.8,287.7l-1.1-3.7l2.9-2.3c0.2-0.2,0.3-0.4,0.3-0.7c0-0.3-0.1-0.5-0.3-0.7l-2.9-2.3l1.1-3.7
			c0.1-0.2,0-0.5-0.1-0.7c-0.1-0.2-0.4-0.3-0.6-0.3l-3.7-0.1l-1.2-3.6c-0.1-0.2-0.3-0.4-0.5-0.5c-0.2-0.1-0.5,0-0.7,0.1l-3,2.2
			l-3-2.2c-0.2-0.1-0.5-0.2-0.7-0.1c-0.2,0.1-0.4,0.3-0.5,0.5l-1.2,3.6l-3.7,0.1c-0.2,0-0.5,0.1-0.6,0.3c-0.1,0.2-0.2,0.5-0.1,0.7
			l1.1,3.7l-2.9,2.3c-0.2,0.2-0.3,0.4-0.3,0.7c0,0.3,0.1,0.5,0.3,0.7l2.9,2.3l-1.1,3.7c-0.1,0.2,0,0.5,0.1,0.7
			c0.1,0.2,0.4,0.3,0.6,0.3l3.7,0.1l1.2,3.6c0.1,0.2,0.3,0.4,0.5,0.5c0.2,0.1,0.5,0,0.7-0.1l3-2.2l3,2.2c0.1,0.1,0.3,0.1,0.4,0.1
			c0.1,0,0.2,0,0.2,0c0.2-0.1,0.4-0.3,0.5-0.5l1.2-3.6l3.7-0.1c0.2,0,0.5-0.1,0.6-0.3C42.9,288.2,42.9,287.9,42.8,287.7 M30.1,275.3
			c1.1,0,2,1.2,2,2.6c0,1.4-0.9,2.6-2,2.6c-1.1,0-2-1.2-2-2.6C28,276.5,28.9,275.3,30.1,275.3z M29.9,286.7
			c-0.1,0.2-0.3,0.3-0.5,0.3c-0.1,0-0.3,0-0.4-0.1c-0.3-0.2-0.4-0.7-0.2-1l7.2-10.5c0.1-0.2,0.3-0.3,0.5-0.3c0.1,0,0.3,0,0.4,0.1
			c0.3,0.2,0.4,0.7,0.2,1L29.9,286.7z M35.9,286.7c-1.1,0-2-1.2-2-2.6c0-1.4,0.9-2.6,2-2.6c1.1,0,2,1.2,2,2.6
			C38,285.5,37.1,286.7,35.9,286.7z"/>
	</g>
</g>
</svg>
