<?xml version="1.0" encoding="utf-8"?>
<!-- Generator: Adobe Illustrator 19.0.1, SVG Export Plug-In . SVG Version: 6.00 Build 0)  -->
<svg version="1.1" id="Capa_1" xmlns="http://www.w3.org/2000/svg" xmlns:xlink="http://www.w3.org/1999/xlink" x="0px" y="0px"
	 viewBox="23.6 271.6 18.4 18.4" style="enable-background:new 23.6 271.6 18.4 18.4;" xml:space="preserve">
<style type="text/css">
	.st0{fill:#62B815;}
</style>
<g>
	<path class="st0" d="M24.4,284.3h9.3c0.1,0,0.3-0.2,0.3-0.4V273c0-0.6-0.3-1.1-0.8-1.1h-8.3c-0.4,0-0.8,0.5-0.8,1.1v10.9
		C24.1,284.1,24.2,284.3,24.4,284.3z M26.2,276.9c0-0.3,0.1-0.5,0.3-0.5H29v-1.3c0-0.4,0.3-0.6,0.5-0.3l2.1,3.1
		c0.1,0.2,0.1,0.5,0,0.6l-2.1,3.1c-0.2,0.3-0.5,0.1-0.5-0.3v-1.3h-2.5c-0.2,0-0.3-0.2-0.3-0.5L26.2,276.9L26.2,276.9z M27.3,287.2
		h-3.1c-0.1,0-0.3-0.2-0.3-0.4v-1.1c0-0.2,0.1-0.4,0.3-0.4H28C27.7,285.8,27.4,286.5,27.3,287.2z M41.7,285.4h-0.6v-5
		c0-0.6-0.1-1.2-0.3-1.6l-1.5-3.3c-0.4-0.8-1-1.3-1.7-1.3h-2.4c-0.3,0-0.5,0.3-0.5,0.7v10.5h-3.9c0.4,0.5,0.6,1.1,0.7,1.8h4.1
		c0.1-1.5,1-2.6,2.1-2.6c1,0,1.9,1.1,2.1,2.6h2.1c0.1,0,0.3-0.2,0.3-0.4v-1.1C42,285.5,41.9,285.4,41.7,285.4z M39.2,279.4h-3.2
		c-0.1,0-0.3-0.2-0.3-0.4v-2.5c0-0.2,0.1-0.4,0.3-0.4H38c0.1,0,0.2,0.1,0.2,0.2l1.2,2.5C39.5,279.1,39.4,279.4,39.2,279.4z
		 M29.4,285.4c-0.9,0-1.6,1-1.6,2.3c0,1.3,0.7,2.3,1.6,2.3c0.9,0,1.6-1,1.6-2.3C31,286.4,30.3,285.4,29.4,285.4z M29.4,288.8
		c-0.4,0-0.8-0.5-0.8-1.1c0-0.6,0.4-1.1,0.8-1.1c0.4,0,0.8,0.5,0.8,1.1C30.2,288.3,29.8,288.8,29.4,288.8z M37.6,285.4
		c-0.9,0-1.6,1-1.6,2.3c0,1.3,0.7,2.3,1.6,2.3c0.9,0,1.6-1,1.6-2.3C39.2,286.4,38.5,285.4,37.6,285.4z M37.6,288.8
		c-0.4,0-0.8-0.5-0.8-1.1c0-0.6,0.4-1.1,0.8-1.1s0.8,0.5,0.8,1.1C38.4,288.3,38.1,288.8,37.6,288.8z"/>
</g>
</svg>
