<?xml version="1.0" encoding="utf-8"?>
<!-- Generator: Adobe Illustrator 19.0.1, SVG Export Plug-In . SVG Version: 6.00 Build 0)  -->
<svg version="1.1" id="Capa_1" xmlns="http://www.w3.org/2000/svg" xmlns:xlink="http://www.w3.org/1999/xlink" x="0px" y="0px"
	 viewBox="-293.5 404.4 33 33" style="enable-background:new -293.5 404.4 33 33;" xml:space="preserve">
<style type="text/css">
	.st0{fill:#F6731C;}
</style>
<g>
	<path class="st0" d="M-263.5,419.2c0.4,0,2.1,0,2.4,0.1l-2.9-10.9h-0.1c0.5-0.2,0.8-0.7,0.8-1.2v-0.8c0-0.8-0.7-1.4-1.6-1.4h-24.7
		c-0.9,0-1.6,0.6-1.6,1.4v0.8c0,0.5,0.3,1,0.8,1.2h-0.1l-2.8,11.1c0,0,1.7-0.1,2.4-0.2v15.1h-1.2v2.5h29.5v-2.5h-1.2L-263.5,419.2
		L-263.5,419.2z M-271.8,409.8l0.5,8.3c-1.3,0-2.6-0.1-3.8-0.1l-0.2-8.2c0-0.5,0.3-1,0.8-1.2h1.8
		C-272.2,408.8-271.8,409.3-271.8,409.8z M-278.4,409.8l-0.2,8.2c-1.4,0-2.7,0-3.8,0.1l0.5-8.3c0-0.5,0.3-1,0.8-1.2h1.8
		C-278.7,408.8-278.4,409.3-278.4,409.8z M-288.2,409.8c0-0.5,0.3-1,0.8-1.2h1.8c0.5,0.2,0.8,0.7,0.8,1.2l-0.9,8.4
		c-1.6,0.1-2.9,0.2-3.9,0.3L-288.2,409.8z M-274.7,428H-288v-6.8h13.3V428z M-266.2,432.9h-5.2v-11.7h5.2V432.9z M-268,418.2
		l-0.9-8.5c0-0.5,0.3-1,0.8-1.2h1.8c0.5,0.2,0.8,0.7,0.8,1.2l1.3,8.7C-265.5,418.4-266.7,418.3-268,418.2z"/>
</g>
</svg>
