<?xml version="1.0" encoding="utf-8"?>
<!-- Generator: Adobe Illustrator 19.0.1, SVG Export Plug-In . SVG Version: 6.00 Build 0)  -->
<svg version="1.1" id="Layer_1" xmlns="http://www.w3.org/2000/svg" xmlns:xlink="http://www.w3.org/1999/xlink" x="0px" y="0px"
	 viewBox="0 0 32.2 32.3" style="enable-background:new 0 0 32.2 32.3;" xml:space="preserve">
<style type="text/css">
	.st0{fill:#EE1D25;}
</style>
<image style="display:none;overflow:visible;" width="300" height="300" xlink:href="../sources/00912478_n2.jpg"  transform="matrix(1 0 0 1 -132.5 -132.5)">
</image>
<path class="st0" d="M16.8,31.6c-0.1,0.1-0.2,0.2-0.4,0.3C16.3,32,16.2,32,16.1,32c-0.1,0-0.2,0-0.4-0.1c-0.2-0.1-0.3-0.2-0.4-0.3
	c-1.9-2-3.9-3.9-5.8-5.9c-0.1-0.1-0.1-0.2-0.1-0.3c0-0.1,0.1-0.1,0.1-0.1c1,0,1.9,0,2.9,0c0,0,0.3,0,0.4-0.2
	c0.1-0.1,0.1-0.3,0.1-0.4c0-3.8,0-4.7,0-4.7c0-0.1,0-0.2,0.1-0.4c0.1-0.2,0.3-0.3,0.4-0.3h4.8c0.1,0,0.2,0.1,0.4,0.2
	c0.1,0.1,0.2,0.3,0.2,0.3c0,1.7,0,3.3,0,5c0,0.1,0,0.2,0.1,0.3c0.1,0.1,0.3,0.2,0.5,0.2c1,0,2.1,0,3.1,0c0,0,0.1,0.1,0.1,0.1
	c0.1,0.1,0,0.3-0.1,0.4C20.7,27.7,18.8,29.6,16.8,31.6z"/>
<path class="st0" d="M15.3,0.4c0.1-0.1,0.2-0.2,0.4-0.3C15.8,0,16,0,16.1,0c0.1,0,0.2,0,0.4,0.1c0.2,0.1,0.3,0.2,0.4,0.3
	c1.9,2,3.9,3.9,5.8,5.9c0.1,0.1,0.1,0.2,0.1,0.3c0,0.1-0.1,0.1-0.1,0.1c-1,0-1.9,0-2.9,0c0,0-0.3,0-0.4,0.2
	c-0.1,0.1-0.1,0.3-0.1,0.4c0,3.8,0,4.7,0,4.7c0,0.1,0,0.2-0.1,0.4c-0.1,0.2-0.3,0.3-0.4,0.3l-4.8,0c-0.1,0-0.2-0.1-0.4-0.2
	c-0.1-0.1-0.2-0.3-0.2-0.3c0-1.7,0-3.3,0-5c0-0.1,0-0.2-0.1-0.3c-0.1-0.1-0.3-0.2-0.5-0.2c-1,0-2.1,0-3.1,0c0,0-0.1-0.1-0.1-0.1
	c-0.1-0.1,0-0.3,0.1-0.4C11.5,4.3,13.4,2.4,15.3,0.4z"/>
<path class="st0" d="M6.7,9.6v12.7c0,0.1,0,0.2-0.1,0.3c-0.1,0.1-0.2,0.1-0.3,0c-2.1-2.1-4.1-4.1-6.2-6.2c0,0-0.1-0.2-0.1-0.4
	c0-0.2,0.1-0.3,0.1-0.3c2.1-2.1,4.1-4.2,6.2-6.3c0.1-0.1,0.2-0.1,0.3,0C6.7,9.5,6.7,9.6,6.7,9.6z"/>
<path class="st0" d="M25.3,22.5V9.8c0-0.1,0-0.2,0.1-0.3c0.1-0.1,0.2-0.1,0.3,0c2.1,2.1,4.1,4.1,6.2,6.2c0,0,0.1,0.2,0.1,0.4
	c0,0.2-0.1,0.3-0.1,0.3c-2.1,2.1-4.1,4.2-6.2,6.3c-0.1,0.1-0.2,0.1-0.3,0C25.3,22.6,25.3,22.5,25.3,22.5z"/>
</svg>
