<?xml version="1.0" encoding="utf-8"?>
<!-- Generator: Adobe Illustrator 19.0.1, SVG Export Plug-In . SVG Version: 6.00 Build 0)  -->
<svg version="1.1" id="Capa_1" xmlns="http://www.w3.org/2000/svg" xmlns:xlink="http://www.w3.org/1999/xlink" x="0px" y="0px"
	 viewBox="36.3 404.6 33 33" style="enable-background:new 36.3 404.6 33 33;" xml:space="preserve">
<style type="text/css">
	.st0{fill:#62B915;}
</style>
<g>
	<path class="st0" d="M68.8,432.4c-0.4-2.3-1.4-5.4-3.2-6.4c-1.2-0.7-5.6-2.7-7.5-3.6l0,0c-0.2-0.1-0.5-0.1-0.7,0
		c-1,0.7-2,1.1-3.2,1.3c-0.2,0-0.4,0.2-0.4,0.3l-1,2.3l-1-2.3c-0.1-0.2-0.2-0.3-0.4-0.3c-1.1-0.2-2.2-0.7-3.2-1.3
		c-0.2-0.1-0.4-0.1-0.7,0l0,0c-1.9,0.8-6.2,2.8-7.5,3.6c-1.8,1.1-2.7,4.1-3.2,6.4c0,0.1,0,0.2,0,0.3c0.1,0.2,2,4.4,16,4.4
		c14,0,15.9-4.3,16-4.4C68.8,432.5,68.8,432.5,68.8,432.4z M61.9,430.7h-5.5v-1h5.5V430.7z"/>
	<path class="st0" d="M52.8,423.1c2.4,0,8.6-2.7,8.6-9c0-0.9,0-1.7-0.1-2.6c-0.1-1.6-0.5-3-1.5-4.1c-1.2-1.5-3.3-2.4-7-2.4
		c-3.7,0-5.8,0.9-7,2.4c-1,1.1-1.3,2.5-1.5,4.1c-0.1,0.8-0.1,1.7-0.1,2.6C44.3,420.4,50.5,423.1,52.8,423.1z M58.3,414.1
		c0.1,0.1,0.2,0.4,0.2,0.6c0,0.4-0.1,1.2-0.8,1.5c-0.3,0.1-0.8,0.2-1.3,0.2c-0.9,0-1.7-0.3-2-0.7c-0.7-1-0.4-1.5-0.4-1.5
		c0,0,0.2-0.4,2-0.5c0.3,0,0.6,0,0.8,0C57.8,413.7,58.1,413.9,58.3,414.1z M52.8,408c0.9,0,1.7,0.1,2.7,0.4
		c-0.3,0.5-0.4,0.8-0.6,1.4c-0.8-0.2-1.4-0.3-2.1-0.3c-0.7,0-1.3,0.1-2.1,0.3c-0.3-0.5-0.4-0.8-0.6-1.4C51.1,408.1,52,408,52.8,408z
		 M52.8,411.4c2.8,0,4.2,1.1,5.1,1.8c-0.4,0-0.8,0-1.2,0c-0.3,0-0.7,0-1.1,0l-0.1,0c-0.7,0-1.1,0.1-1.6,0.3c-0.1,0-0.2,0.1-0.3,0.1
		c-0.2,0.1-0.4,0.2-0.5,0.2c-0.1,0-0.2,0-0.3,0s-0.3,0-0.3,0c-0.1,0-0.4-0.1-0.5-0.2c-0.1-0.1-0.2-0.1-0.3-0.1
		c-0.5-0.2-0.9-0.2-1.6-0.3l-0.1,0c-0.4,0-0.7,0-1.1,0c-0.4,0-0.8,0-1.2,0C48.6,412.5,50.1,411.4,52.8,411.4z M47.3,414.1
		c0.2-0.2,0.5-0.4,1.5-0.4c0.2,0,0.5,0,0.8,0c1.8,0.1,2,0.4,2,0.5c0,0,0.2,0.6-0.4,1.5c-0.3,0.4-1.1,0.7-2,0.7c-0.5,0-1-0.1-1.3-0.2
		c-0.7-0.3-0.8-1-0.8-1.5C47.1,414.5,47.2,414.2,47.3,414.1z M45.6,412.7c0.1,0.1,0.3,0.6,0.7,0.8c-0.1,0.1-0.1,0.2-0.1,0.3
		c0,0.1,0,0.2,0,0.3l0,0c0,0.1,0,0.1,0,0.1c0,0.2,0.1,0.3,0.2,0.4c0,0,0,0,0,0c0,0,0,0.1,0.1,0.1c0.3,1.4,0.3,1.6,1.1,1.9
		c0.3,0.2,1,0.3,1.7,0.3c0.5,0,1.3-0.1,2-0.3c1-0.4,1.3-1.9,1.3-1.9c0,0,0.1-0.1,0.3-0.1h0.1c0.2,0,0.3,0.1,0.3,0.1
		c0,0.1,0.4,1.5,1.3,1.9c0.6,0.3,1.4,0.3,2,0.3c0.7,0,1.4-0.1,1.7-0.3c0.7-0.3,0.8-0.6,1.1-1.9c0-0.1,0-0.1,0.1-0.1c0,0,0,0,0,0
		c0.1-0.1,0.2-0.2,0.2-0.4c0,0,0-0.1,0-0.1l0,0c0-0.1,0-0.2,0-0.3c0-0.1-0.1-0.2-0.1-0.3c0.4-0.2,0.6-0.7,0.7-0.8c0,0.5,0,0.9,0,1.4
		c0,3.1-1.6,5-3,6.1c-1.6,1.3-3.7,1.8-4.3,1.8s-2.7-0.5-4.3-1.8c-1.4-1.1-3-3-3-6.1C45.5,413.6,45.5,413.2,45.6,412.7z"/>
</g>
</svg>
