<?xml version="1.0" encoding="utf-8"?>
<!-- Generator: Adobe Illustrator 19.0.1, SVG Export Plug-In . SVG Version: 6.00 Build 0)  -->
<svg version="1.1" id="Capa_1" xmlns="http://www.w3.org/2000/svg" xmlns:xlink="http://www.w3.org/1999/xlink" x="0px" y="0px"
	 viewBox="297.5 404.4 33 33" style="enable-background:new 297.5 404.4 33 33;" xml:space="preserve">
<style type="text/css">
	.st0{fill:#62B915;}
</style>
<g>
	<path class="st0" d="M323.2,408.8l-15.6,7.6v4.9l-2.7-1.3v-4.9l15.6-7.6l-5.2-2.4c-0.7-0.3-1.8-0.3-2.5,0l-12.9,5.9
		c-1,0.5-1.9,1.8-1.9,3l0,13.9c0,1.2,0.9,2.5,1.9,3l12.8,5.7c0.7,0.3,1.8,0.3,2.5,0l12.8-5.7c1-0.5,1.9-1.8,1.9-3l0-13.9
		c0-1.2-0.8-2.5-1.9-3L323.2,408.8z M327.1,419.9l-0.8,0.4l0,5.5c0,0.2-0.2,0.5-0.5,0.6l-1.1,0.5c-0.2,0.1-0.4,0-0.4-0.2l0-5.4
		l-0.7,0.4c-0.3,0.2-0.6-0.1-0.4-0.5l1.7-3.8c0.2-0.4,0.6-0.6,0.8-0.4l1.8,2.1C327.7,419.3,327.5,419.8,327.1,419.9z M319.7,428.8
		c0,0.2-0.2,0.5-0.4,0.6l-1,0.5c-0.2,0.1-0.4,0-0.4-0.2l-0.1-5.2l-0.7,0.3c-0.3,0.2-0.5-0.1-0.4-0.5l1.6-3.6
		c0.2-0.4,0.6-0.6,0.7-0.4l1.7,2.1c0.2,0.2,0,0.7-0.4,0.8l-0.7,0.3L319.7,428.8z M328.3,427.3c0,0.1-0.1,0.3-0.2,0.3l-11.9,5.2
		c-0.1,0-0.2,0-0.2-0.1l0-0.6c0-0.1,0.1-0.2,0.2-0.3l12-5.3c0.1-0.1,0.2,0,0.2,0.1L328.3,427.3z"/>
</g>
</svg>
